<svg xmlns="http://www.w3.org/2000/svg" width="32" height="22.959" viewBox="0 0 32 22.959">
  <g id="book" transform="translate(0 -68.303)">
    <g id="Group_7" data-name="Group 7" transform="translate(0 58.303)">
      <path id="Path_6" data-name="Path 6" d="M31.38,60.214H29.271v-.72a.62.62,0,0,0-.447-.62,17.472,17.472,0,0,0-4.472-.571,11.535,11.535,0,0,0-8.361,3.1,11.414,11.414,0,0,0-8.361-3.1,17.472,17.472,0,0,0-4.472.571.62.62,0,0,0-.447.62v.713H.62a.62.62,0,0,0-.62.62V80.639a.619.619,0,0,0,.924.54,21.869,21.869,0,0,1,14.924-1.241H16a.621.621,0,0,0,.149,0c8.684-2.2,14.887,1.185,14.924,1.241a.62.62,0,0,0,.93-.533V60.834A.62.62,0,0,0,31.38,60.214ZM1.241,79.653v-18.2H2.723V77.011a.62.62,0,0,0,.713.62,27.143,27.143,0,0,1,3.877-.31,16.09,16.09,0,0,1,5.3.8A22.8,22.8,0,0,0,1.241,79.653Zm6.072-3.567a27.291,27.291,0,0,0-3.374.217V59.984a17.108,17.108,0,0,1,3.678-.409,10.127,10.127,0,0,1,7.741,3.039l.019,15.451C14.086,77.222,11.568,76.087,7.313,76.087Zm9.3-13.472a10.219,10.219,0,0,1,7.741-3.039,17.182,17.182,0,0,1,3.678.409V76.3a27.283,27.283,0,0,0-3.356-.223,14.62,14.62,0,0,0-8.064,1.979ZM30.753,79.653a22.807,22.807,0,0,0-11.394-1.532,16.128,16.128,0,0,1,5.322-.8,27.138,27.138,0,0,1,3.9.3A.62.62,0,0,0,29.3,77V61.454h1.482Z" transform="translate(0 -48.303)" fill="rgba(247,246,243,0.3)"/>
    </g>
  </g>
</svg>
