<svg xmlns="http://www.w3.org/2000/svg" width="32" height="32" viewBox="0 0 32 32">
  <g id="briefcase" transform="translate(0 -70.666)">
    <g id="Group_12" data-name="Group 12" transform="translate(0 43.666)">
      <path id="Path_7" data-name="Path 7" d="M29.333,47.466H22.667v-1.6A2.973,2.973,0,0,0,20,42.666H12a2.973,2.973,0,0,0-2.667,3.2v1.6H2.667A2.973,2.973,0,0,0,0,50.666v20.8a2.973,2.973,0,0,0,2.667,3.2H29.333A2.973,2.973,0,0,0,32,71.466v-20.8A2.973,2.973,0,0,0,29.333,47.466Zm-18.667-1.6A1.487,1.487,0,0,1,12,44.266h8a1.487,1.487,0,0,1,1.333,1.6v1.6H10.667Zm20,25.6a1.487,1.487,0,0,1-1.333,1.6H2.667a1.487,1.487,0,0,1-1.333-1.6V59.821a2.317,2.317,0,0,0,1.333.445H13.333v2.4a.742.742,0,0,0,.667.8h4a.742.742,0,0,0,.667-.8v-2.4H29.333a2.316,2.316,0,0,0,1.333-.445V71.466Zm-16-9.6v-3.2h2.667v3.2Zm16-4.8a1.487,1.487,0,0,1-1.333,1.6H18.667v-.8a.742.742,0,0,0-.667-.8H14a.742.742,0,0,0-.667.8v.8H2.667a1.487,1.487,0,0,1-1.333-1.6v-6.4a1.487,1.487,0,0,1,1.333-1.6H29.333a1.487,1.487,0,0,1,1.333,1.6Z" transform="translate(0 -15.666)" fill="rgba(247,246,243,0.3)"/>
    </g>
  </g>
</svg>
