<svg xmlns="http://www.w3.org/2000/svg" width="32" height="32" viewBox="0 0 32 32">
  <path id="pen" d="M28.324,1.259a4.406,4.406,0,0,0-6.227,0L20.539,2.826,3.947,19.411l-.035.036c-.009.009-.009.018-.018.018-.018.026-.044.053-.061.079,0,.009-.009.009-.009.018-.018.026-.026.044-.044.071-.009.009-.009.017-.017.026-.009.026-.018.044-.027.071,0,.009-.009.009-.009.018L.046,30.817a.867.867,0,0,0,.211.9.886.886,0,0,0,.625.256,1.039,1.039,0,0,0,.282-.044l11.061-3.69c.009,0,.009,0,.018-.009a.319.319,0,0,0,.079-.036.031.031,0,0,0,.018-.009c.026-.018.061-.036.088-.053s.053-.044.079-.061c.009-.009.017-.009.017-.018s.027-.017.036-.035L30.711,9.864a4.407,4.407,0,0,0,0-6.227ZM11.944,26.166l-6.129-6.13L21.156,4.694l6.129,6.13Zm-6.993-4.5,5.355,5.355L2.265,29.7ZM29.469,8.631l-.934.943-6.13-6.13.943-.942a2.641,2.641,0,0,1,3.734,0l2.4,2.4a2.651,2.651,0,0,1-.009,3.734Zm0,0" transform="translate(0.001 0.029)" fill="rgba(247,246,243,0.3)"/>
</svg>
