<svg xmlns="http://www.w3.org/2000/svg" width="32" height="29.441" viewBox="0 0 32 29.441">
  <g id="comment" transform="translate(-0.001 1.332)">
    <path id="Path_8" data-name="Path 8" d="M27.6-1.332H4.4A4.4,4.4,0,0,0,0,3.067v14.2a4.4,4.4,0,0,0,4.384,4.4v6.443l9.26-6.443H27.6a4.4,4.4,0,0,0,4.4-4.4V3.067a4.4,4.4,0,0,0-4.4-4.4Zm2.524,18.6A2.527,2.527,0,0,1,27.6,19.79H13.056l-6.8,4.729V19.79H4.4a2.527,2.527,0,0,1-2.524-2.524V3.067A2.527,2.527,0,0,1,4.4.543H27.6a2.527,2.527,0,0,1,2.524,2.524Zm0,0" fill="#0692ce"/>
    <path id="Path_9" data-name="Path 9" d="M171.293,131.172h20.265v2.555H171.293Zm0,0" transform="translate(-165.425 -126.042)" fill="#0692ce"/>
    <path id="Path_10" data-name="Path 10" d="M171.293,211.172h20.265v2.555H171.293Zm0,0" transform="translate(-165.425 -202.141)" fill="#0692ce"/>
    <path id="Path_11" data-name="Path 11" d="M171.293,291.172h20.265v2.555H171.293Zm0,0" transform="translate(-165.425 -278.24)" fill="#0692ce"/>
  </g>
</svg>
