<svg xmlns="http://www.w3.org/2000/svg" width="32.095" height="32.095" viewBox="0 0 32.095 32.095">
  <g id="gear" transform="translate(-292.074 -292.074)">
    <path id="Path_1" data-name="Path 1" d="M29.765,11.948,28.2,11.683c-.139-.388-.3-.768-.471-1.138l.922-1.289a2.792,2.792,0,0,0-.3-3.615L26.467,3.759a2.8,2.8,0,0,0-3.609-.3l-1.294.922a12.9,12.9,0,0,0-1.216-.5L20.09,2.344A2.8,2.8,0,0,0,17.319,0H14.662a2.8,2.8,0,0,0-2.77,2.341L11.62,3.934q-.576.21-1.134.478L9.215,3.5a2.805,2.805,0,0,0-3.621.3L3.709,5.678a2.8,2.8,0,0,0-.3,3.615l.937,1.316c-.173.371-.328.754-.465,1.144l-1.534.259A2.8,2.8,0,0,0,0,14.782v2.657a2.8,2.8,0,0,0,2.341,2.77l1.594.272c.14.384.3.763.478,1.134L3.5,22.883A2.792,2.792,0,0,0,3.8,26.5l1.881,1.881a2.8,2.8,0,0,0,3.609.3l1.316-.937c.346.161.7.308,1.072.44l.261,1.565a2.8,2.8,0,0,0,2.77,2.344h2.663a2.8,2.8,0,0,0,2.77-2.342l.265-1.565c.388-.139.768-.3,1.138-.471l1.285.919a2.8,2.8,0,0,0,3.619-.3l1.881-1.881a2.8,2.8,0,0,0,.3-3.615l-.923-1.3c.179-.379.337-.759.473-1.137l1.563-.261a2.8,2.8,0,0,0,2.344-2.77V14.724a2.773,2.773,0,0,0-2.329-2.776Zm.449,5.427a.925.925,0,0,1-.773.916l-2.073.346a1.014,1.014,0,0,0-.806.7,11,11,0,0,1-.751,1.812,1.013,1.013,0,0,0,.074,1.061l1.222,1.716a.926.926,0,0,1-.1,1.195l-1.881,1.881a.924.924,0,0,1-1.193.1l-1.708-1.221a1.013,1.013,0,0,0-1.066-.074,11.073,11.073,0,0,1-1.814.751,1.014,1.014,0,0,0-.7.8l-.352,2.075a.925.925,0,0,1-.916.775H14.713a.925.925,0,0,1-.916-.773l-.346-2.073a1.014,1.014,0,0,0-.7-.8A11.006,11.006,0,0,1,11,25.842a1.015,1.015,0,0,0-1.06.074L8.2,27.153a.889.889,0,0,1-.53.17.908.908,0,0,1-.654-.274L5.13,25.165a.918.918,0,0,1-.1-1.188l1.214-1.689a1.012,1.012,0,0,0,.072-1.074,10.753,10.753,0,0,1-.761-1.805,1.016,1.016,0,0,0-.8-.7l-2.1-.358a.926.926,0,0,1-.774-.916V14.782a.926.926,0,0,1,.775-.916L4.7,13.52a1.013,1.013,0,0,0,.8-.707A10.841,10.841,0,0,1,6.247,11a1.014,1.014,0,0,0-.074-1.06L4.938,8.2a.925.925,0,0,1,.1-1.194L6.925,5.128l.007-.007a.9.9,0,0,1,.648-.268.911.911,0,0,1,.536.17l1.7,1.221a1.011,1.011,0,0,0,1.074.072,10.749,10.749,0,0,1,1.8-.761,1.016,1.016,0,0,0,.7-.8l.358-2.1a.925.925,0,0,1,.916-.774h2.657a.926.926,0,0,1,.916.775L18.581,4.7a1.013,1.013,0,0,0,.708.8,10.944,10.944,0,0,1,1.883.775,1.014,1.014,0,0,0,1.062-.073l1.719-1.225a.888.888,0,0,1,.53-.17.908.908,0,0,1,.654.274l1.884,1.884a.919.919,0,0,1,.1,1.19L25.9,9.873a1.014,1.014,0,0,0-.073,1.064,11.068,11.068,0,0,1,.751,1.815,1.014,1.014,0,0,0,.8.7l2.074.352h0a.9.9,0,0,1,.762.9Zm0,0" transform="translate(292.074 292.075)" fill="rgba(247,246,243,0.3)"/>
    <path id="Path_2" data-name="Path 2" d="M162.182,156.453a5.729,5.729,0,1,0,5.729,5.729A5.736,5.736,0,0,0,162.182,156.453Zm0,9.732a4,4,0,1,1,4-4A4.007,4.007,0,0,1,162.182,166.185Zm0,0" transform="translate(145.939 145.94)" fill="rgba(247,246,243,0.3)"/>
  </g>
</svg>
